<svg xmlns="http://www.w3.org/2000/svg" viewBox="0 0 48 48"><path d="M24 0C10.629 0 0 10.629 0 24s10.629 24 24 24 24-10.629 24-24S37.371 0 24 0zm10.286 27.429h-5.829c-.686 0-1.028.342-1.028 1.028v5.829c0 2.057-1.372 3.428-3.429 3.428s-3.429-1.371-3.429-3.428v-5.829c0-.686-.342-1.028-.685-1.028h-6.172c-2.057 0-3.428-1.372-3.428-3.429s1.371-3.429 3.428-3.429h6.172c.343 0 .685-.342.685-.685v-6.172c0-2.057 1.372-3.428 3.429-3.428s3.429 1.371 3.429 3.428v6.172c0 .343.342.685 1.028.685h5.829c2.057 0 3.428 1.372 3.428 3.429s-1.371 3.429-3.428 3.429z" fill="#fff"/></svg>